<svg xmlns="http://www.w3.org/2000/svg" xmlns:xlink="http://www.w3.org/1999/xlink" width="192.615" height="194.5" viewBox="0 0 192.615 194.5"><defs><style>.a,.b{fill:#fff;}.a,.d{clip-rule:evenodd;}.ao,.ap,.aq,.ar,.as,.at,.c,.d{fill:none;}.e{opacity:0.634;clip-path:url(#a);}.f{clip-path:url(#b);}.g{clip-path:url(#c);}.h{clip-path:url(#d);}.i{fill:#e41937;}.j{clip-path:url(#e);}.k{clip-path:url(#g);}.l{isolation:isolate;}.m{clip-path:url(#h);}.n{clip-path:url(#i);}.o{clip-path:url(#j);}.p{clip-path:url(#k);}.q{clip-path:url(#m);}.r{clip-path:url(#n);}.s{clip-path:url(#o);}.t{clip-path:url(#p);}.u{clip-path:url(#q);}.v{clip-path:url(#r);}.w{fill:url(#s);}.x{clip-path:url(#t);}.y{clip-path:url(#u);}.z{clip-path:url(#v);}.aa{clip-path:url(#w);}.ab{fill:url(#x);}.ac{clip-path:url(#y);}.ad{clip-path:url(#z);}.ae{clip-path:url(#aa);}.af{clip-path:url(#ab);}.ag{fill:url(#ac);}.ah{clip-path:url(#ad);}.ai{clip-path:url(#ae);}.aj{clip-path:url(#af);}.ak{clip-path:url(#ag);}.al{fill:url(#ah);}.am{clip-path:url(#ai);}.an{clip-path:url(#aj);}.ao{stroke:#81b0fd;stroke-width:5px;}.ap{stroke:#94cd3a;}.ap,.aq,.ar,.as,.at{stroke-width:4px;}.aq{stroke:#76e7a0;}.ar{stroke:#d67bff;}.as{stroke:#fdde5a;}.at{stroke:#f98180;}</style><clipPath id="a"><path class="a" d="M24.43-147.815l32.362-33.656a9.534,9.534,0,0,1,13.864-.005,10.5,10.5,0,0,1,.005,14.429L38.3-133.391a9.545,9.545,0,0,1-9.483,2.676,10.011,10.011,0,0,1-6.95-7.229A10.489,10.489,0,0,1,24.43-147.815ZM6.246-67.782,104.924-170.4a9.534,9.534,0,0,1,13.837.023,10.5,10.5,0,0,1,.033,14.4L20.116-53.358a9.534,9.534,0,0,1-13.864.006A10.5,10.5,0,0,1,6.246-67.782ZM139.027-90.76,87.037-36.75ZM46.321-51.984l79.224-82.364a9.533,9.533,0,0,1,13.791.069,10.5,10.5,0,0,1,.078,14.354L60.191-37.56a9.543,9.543,0,0,1-9.468,2.645,10.011,10.011,0,0,1-6.935-7.212A10.49,10.49,0,0,1,46.321-51.984ZM75.5-24.845l67.551-70.212a9.534,9.534,0,0,1,13.864-.006,10.5,10.5,0,0,1,.006,14.429L89.371-10.421a9.533,9.533,0,0,1-13.8-.059A10.5,10.5,0,0,1,75.5-24.845Zm89.488-93.57,5.3-5.4a9.533,9.533,0,0,1,13.837.023,10.5,10.5,0,0,1,.032,14.4l-5.3,5.4a9.533,9.533,0,0,1-13.837-.023,10.5,10.5,0,0,1-.033-14.4Z"/></clipPath><clipPath id="b"><path class="b" d="M-91,291H284V-521H-91Z"/></clipPath><clipPath id="c"><path class="c" d="M78.994-120.383h30.613a15,15,0,0,1,15,15V-72.3a15,15,0,0,1-15,15H78.994a15,15,0,0,1-15-15v-33.086A15,15,0,0,1,78.994-120.383Z"/></clipPath><clipPath id="d"><path class="c" d="M-91,291H284V-521H-91Z"/></clipPath><clipPath id="e"><path class="d" d="M95.448-76.409a1.329,1.329,0,0,1-1.336,1.35,1.312,1.312,0,0,1-1.245-1.417,1.3,1.3,0,0,1,1.359-1.3,1.326,1.326,0,0,1,1.222,1.371"/></clipPath><clipPath id="g"><path class="c" d="M84.5-75.443H103.82v-11.3H84.5Z"/></clipPath><clipPath id="h"><rect class="c" width="20" height="12" transform="translate(84 -87)"/></clipPath><clipPath id="i"><path class="d" d="M84.5-75.443v-.131q0-2.609,0-5.217a.184.184,0,0,1,.1-.187c.724-.433,1.442-.876,2.164-1.314.788-.478,1.578-.953,2.365-1.432.826-.5,1.649-1.01,2.475-1.512.807-.489,1.617-.971,2.422-1.463a.182.182,0,0,1,.23,0c.93.572,1.865,1.136,2.8,1.7L100-83.213q1.253.759,2.508,1.516c.417.252.832.506,1.251.754.063.038.056.086.056.14q0,2.05,0,4.1,0,.575,0,1.151c0,.031.018.074-.016.092s-.056-.013-.085-.03c-.435-.266-.873-.527-1.309-.792-.338-.205-.674-.415-1.013-.62-.4-.242-.8-.48-1.2-.722-.371-.225-.74-.455-1.111-.68-.4-.243-.8-.482-1.2-.725-.335-.2-.669-.408-1-.611l-.947-.573-1-.613c-.247-.15-.494-.3-.74-.451-.031-.019-.049-.01-.076.006q-.971.591-1.944,1.179l-1.58.958-1.851,1.126c-.523.318-1.048.633-1.571.95q-.931.565-1.86,1.133c-.259.158-.52.313-.8.481"/></clipPath><clipPath id="j"><path class="c" d="M84-75h20V-87H84Z"/></clipPath><clipPath id="k"><path class="d" d="M84.5-85.919c0-.868,0-1.736,0-2.6a.207.207,0,0,1,.111-.2q1.158-.7,2.315-1.4c.771-.466,1.544-.928,2.314-1.395q1.126-.682,2.25-1.369l1.8-1.1c.254-.155.513-.3.765-.462a.156.156,0,0,1,.191,0q.928.571,1.858,1.136,1.052.639,2.1,1.275,1.212.736,2.423,1.473,1.44.873,2.881,1.744a.931.931,0,0,0,.165.1c.128.044.14.134.14.257q-.005,2.575,0,5.151c0,.149,0,.152-.128.075-.434-.265-.866-.533-1.3-.8-.524-.317-1.051-.628-1.575-.945-.494-.3-.984-.607-1.478-.907-.523-.318-1.05-.63-1.574-.947-.365-.221-.729-.444-1.094-.666-.407-.247-.815-.493-1.221-.741q-.556-.339-1.111-.681a.716.716,0,0,1-.155-.092c-.036-.037-.07,0-.1.018-.368.225-.733.455-1.1.68-.337.206-.678.4-1.015.609-.561.341-1.117.692-1.682,1.027-.457.27-.909.547-1.363.823q-.847.514-1.692,1.03c-.49.3-.983.594-1.473.891q-.6.363-1.2.729c-.048.029-.056.012-.058-.032,0-.026,0-.052,0-.078Z"/></clipPath><clipPath id="m"><path class="c" d="M84.5-90.912h19.317v-11.3H84.5Z"/></clipPath><clipPath id="n"><rect class="c" width="20" height="13" transform="translate(84 -103)"/></clipPath><clipPath id="o"><path class="d" d="M84.5-90.912v-.13q0-2.609,0-5.217a.187.187,0,0,1,.095-.188Q85.3-96.868,86-97.3c.479-.29.956-.582,1.434-.872l1.95-1.183,1.839-1.113q.924-.561,1.847-1.124c.318-.194.637-.387.953-.583a.2.2,0,0,1,.236,0c.673.414,1.348.822,2.023,1.233q1.137.692,2.275,1.383c.588.356,1.178.709,1.765,1.065.678.412,1.354.827,2.033,1.239q.692.421,1.389.834a.13.13,0,0,1,.07.132q0,2.637,0,5.273c0,.1-.025.1-.1.059q-.581-.357-1.165-.71l-1.208-.731c-.371-.225-.74-.452-1.111-.677l-1.21-.732c-.37-.225-.74-.452-1.11-.677-.4-.243-.8-.483-1.2-.725-.335-.2-.669-.407-1-.61l-1.319-.8a.657.657,0,0,1-.14-.084c-.074-.076-.139-.049-.212,0l-2.3,1.4-2.218,1.348-2.055,1.245q-1.11.674-2.218,1.35c-.241.146-.483.291-.742.446"/></clipPath><clipPath id="p"><path class="c" d="M84-90h20v-13H84Z"/></clipPath><clipPath id="q"><path class="c" d="M57.785-33.571a20,20,0,0,0,20-20,20,20,0,0,0-20-20,20,20,0,0,0-20,20A20,20,0,0,0,57.785-33.571Z"/></clipPath><clipPath id="r"><path class="c" d="M-91,242.978H276.218V-521H-91Z" transform="translate(91 521)"/></clipPath><linearGradient id="s" x1="0.308" y1="0.642" x2="0.308" y2="0.856" gradientUnits="objectBoundingBox"><stop offset="0" stop-color="#68c3ff"/><stop offset="0.1" stop-color="#68bfff"/><stop offset="0.2" stop-color="#68bbff"/><stop offset="0.3" stop-color="#67b6ff"/><stop offset="0.4" stop-color="#67b2ff"/><stop offset="0.5" stop-color="#67aeff"/><stop offset="0.6" stop-color="#67aaff"/><stop offset="0.7" stop-color="#67a6ff"/><stop offset="0.8" stop-color="#66a1ff"/><stop offset="0.9" stop-color="#669dff"/><stop offset="1" stop-color="#69f"/></linearGradient><clipPath id="t"><path class="c" d="M63.775-53.543a2.437,2.437,0,0,0-.2-.966c-.013-.076-.028-.152-.047-.228l-1.39-3.737-.009-.034c-.486-1.571-1.178-3.025-2.933-3.025H52.489c-1.8,0-2.433,1.49-2.93,3.016L48.105-54.77a2.451,2.451,0,0,0-.33,1.227v1.163a2.444,2.444,0,0,0,.057.525.983.983,0,0,0-.057.329v3.458a.885.885,0,0,0,.846.918h1.756a.885.885,0,0,0,.846-.918V-49.8h9.2v1.729a.885.885,0,0,0,.846.918h1.656a.885.885,0,0,0,.846-.918v-3.459a.988.988,0,0,0-.057-.329,2.455,2.455,0,0,0,.057-.525v-1.163h0Zm-13.185-4.6c.553-1.694,1-2.211,1.9-2.211H59.2c.893,0,1.391.577,1.9,2.2l1.014,2.23a2.888,2.888,0,0,0-1.078-.207H50.522a2.9,2.9,0,0,0-.978.169Zm.871,6.2H49.608a.632.632,0,0,1-.6-.656.632.632,0,0,1,.6-.656h1.853a.632.632,0,0,1,.6.656A.632.632,0,0,1,51.462-51.938Zm6.546-.131H53.7a.4.4,0,0,1-.383-.415A.4.4,0,0,1,53.7-52.9h4.311a.4.4,0,0,1,.383.415A.4.4,0,0,1,58.008-52.07Zm3.888.131H60.043a.632.632,0,0,1-.6-.656.632.632,0,0,1,.6-.656H61.9a.632.632,0,0,1,.6.656A.632.632,0,0,1,61.9-51.938Z" transform="translate(0)"/></clipPath><clipPath id="u"><path class="c" d="M-91,96.712H194.273V-521H-91Z" transform="translate(91 521)"/></clipPath><clipPath id="v"><path class="c" d="M156.006-66.614a18,18,0,0,0,18-18,18,18,0,0,0-18-18,18,18,0,0,0-18,18A18,18,0,0,0,156.006-66.614Z"/></clipPath><clipPath id="w"><path class="c" d="M-91,254.975H281.985V-521H-91Z" transform="translate(91 521)"/></clipPath><linearGradient id="x" x1="0.834" y1="0.494" x2="0.834" y2="0.686" gradientUnits="objectBoundingBox"><stop offset="0" stop-color="#ff8396"/><stop offset="0.1" stop-color="#ff8199"/><stop offset="0.2" stop-color="#ff809c"/><stop offset="0.3" stop-color="#ff7e9f"/><stop offset="0.4" stop-color="#ff7da2"/><stop offset="0.5" stop-color="#ff7ba4"/><stop offset="0.6" stop-color="#fe7aa7"/><stop offset="0.7" stop-color="#fe78aa"/><stop offset="0.8" stop-color="#fe77ad"/><stop offset="0.9" stop-color="#fe75b0"/><stop offset="1" stop-color="#fe74b3"/></linearGradient><clipPath id="y"><path class="d" d="M165.979-89.629a.841.841,0,0,1,.824.857v10.286a.841.841,0,0,1-.824.857H146.626a.841.841,0,0,1-.824-.857V-88.771a.841.841,0,0,1,.824-.857Zm-15.647.857h-3.706v10.286h3.706Zm2.6,3.185a1.29,1.29,0,0,0-.487.093.986.986,0,0,0-.4.309,1.613,1.613,0,0,0-.274.573,3.283,3.283,0,0,0-.1.882,3.412,3.412,0,0,0,.1.9,1.612,1.612,0,0,0,.274.579.986.986,0,0,0,.4.309,1.29,1.29,0,0,0,.487.093,1.3,1.3,0,0,0,.492-.093,1,1,0,0,0,.405-.309,1.588,1.588,0,0,0,.277-.579,3.413,3.413,0,0,0,.1-.9,3.284,3.284,0,0,0-.1-.882,1.588,1.588,0,0,0-.277-.573,1,1,0,0,0-.405-.309A1.3,1.3,0,0,0,152.935-85.586Zm3.365,0a1.29,1.29,0,0,0-.487.093.987.987,0,0,0-.4.309,1.615,1.615,0,0,0-.274.573,3.284,3.284,0,0,0-.1.882,3.413,3.413,0,0,0,.1.9,1.614,1.614,0,0,0,.274.579.987.987,0,0,0,.4.309,1.29,1.29,0,0,0,.487.093,1.3,1.3,0,0,0,.492-.093,1,1,0,0,0,.405-.309,1.588,1.588,0,0,0,.277-.579,3.409,3.409,0,0,0,.1-.9,3.28,3.28,0,0,0-.1-.882,1.588,1.588,0,0,0-.277-.573,1,1,0,0,0-.405-.309A1.3,1.3,0,0,0,156.3-85.586Zm3.365,0a1.29,1.29,0,0,0-.487.093.987.987,0,0,0-.4.309,1.615,1.615,0,0,0-.274.573,3.28,3.28,0,0,0-.1.882,3.409,3.409,0,0,0,.1.9,1.614,1.614,0,0,0,.274.579.987.987,0,0,0,.4.309,1.29,1.29,0,0,0,.487.093,1.3,1.3,0,0,0,.492-.093,1,1,0,0,0,.405-.309,1.588,1.588,0,0,0,.277-.579,3.413,3.413,0,0,0,.1-.9,3.284,3.284,0,0,0-.1-.882,1.588,1.588,0,0,0-.277-.573,1,1,0,0,0-.405-.309A1.3,1.3,0,0,0,159.665-85.586Zm3.365,0a1.29,1.29,0,0,0-.487.093.987.987,0,0,0-.4.309,1.615,1.615,0,0,0-.274.573,3.284,3.284,0,0,0-.1.882,3.413,3.413,0,0,0,.1.9,1.614,1.614,0,0,0,.274.579.987.987,0,0,0,.4.309,1.29,1.29,0,0,0,.487.093,1.3,1.3,0,0,0,.492-.093,1,1,0,0,0,.405-.309,1.588,1.588,0,0,0,.277-.579,3.413,3.413,0,0,0,.1-.9,3.284,3.284,0,0,0-.1-.882,1.588,1.588,0,0,0-.277-.573,1,1,0,0,0-.405-.309A1.3,1.3,0,0,0,163.03-85.586Zm-10.095.6a.422.422,0,0,1,.242.067.541.541,0,0,1,.163.175.859.859,0,0,1,.1.244,2.574,2.574,0,0,1,.049.275,2.552,2.552,0,0,1,.02.27l0,.224h0l0,.17q0,.093-.007.2a2.075,2.075,0,0,1-.062.422.9.9,0,0,1-.168.347.4.4,0,0,1-.334.144.391.391,0,0,1-.326-.144.92.92,0,0,1-.166-.347,2.082,2.082,0,0,1-.062-.422q-.008-.164-.009-.292v-.081q0-.093,0-.224t.017-.27a1.962,1.962,0,0,1,.049-.275.967.967,0,0,1,.1-.244.528.528,0,0,1,.158-.175A.411.411,0,0,1,152.935-84.985Zm3.365,0a.422.422,0,0,1,.242.067.542.542,0,0,1,.163.175.862.862,0,0,1,.1.244,2.621,2.621,0,0,1,.049.275,2.6,2.6,0,0,1,.02.27l0,.224h0l0,.17q0,.093-.007.2a2.081,2.081,0,0,1-.062.422.9.9,0,0,1-.168.347.4.4,0,0,1-.333.144.391.391,0,0,1-.326-.144.919.919,0,0,1-.166-.347,2.076,2.076,0,0,1-.062-.422q-.007-.164-.009-.292v-.081q0-.093,0-.224t.017-.27a1.968,1.968,0,0,1,.049-.275.972.972,0,0,1,.1-.244.527.527,0,0,1,.158-.175A.41.41,0,0,1,156.3-84.985Zm3.365,0a.422.422,0,0,1,.242.067.542.542,0,0,1,.163.175.86.86,0,0,1,.1.244,2.574,2.574,0,0,1,.049.275,2.552,2.552,0,0,1,.02.27l0,.224h0l0,.17q0,.093-.007.2a2.076,2.076,0,0,1-.062.422.9.9,0,0,1-.168.347.4.4,0,0,1-.334.144.391.391,0,0,1-.326-.144.92.92,0,0,1-.166-.347,2.083,2.083,0,0,1-.062-.422q-.007-.164-.009-.292v-.081q0-.093,0-.224t.017-.27a1.964,1.964,0,0,1,.049-.275.972.972,0,0,1,.1-.244.53.53,0,0,1,.158-.175A.41.41,0,0,1,159.665-84.985Zm3.365,0a.422.422,0,0,1,.242.067.543.543,0,0,1,.163.175.862.862,0,0,1,.1.244,2.621,2.621,0,0,1,.049.275,2.6,2.6,0,0,1,.02.27l0,.224h0l0,.17q0,.093-.007.2a2.083,2.083,0,0,1-.062.422.9.9,0,0,1-.168.347.4.4,0,0,1-.333.144.391.391,0,0,1-.326-.144.92.92,0,0,1-.165-.347,2.074,2.074,0,0,1-.062-.422q-.007-.164-.009-.292v-.081q0-.093,0-.224t.017-.27a1.964,1.964,0,0,1,.049-.275.968.968,0,0,1,.1-.244.527.527,0,0,1,.158-.175A.41.41,0,0,1,163.03-84.985Z"/></clipPath><clipPath id="z"><path class="c" d="M-91,288.313h374.42V-521H-91Z" transform="translate(91 521)"/></clipPath><clipPath id="aa"><path class="c" d="M71.146-129.881a15,15,0,0,0,15-15,15,15,0,0,0-15-15,15,15,0,0,0-15,15A15,15,0,0,0,71.146-129.881Z"/></clipPath><clipPath id="ab"><path class="c" d="M-91,291.78H299.854V-521H-91Z" transform="translate(91 521)"/></clipPath><linearGradient id="ac" x1="0.296" y1="0.204" x2="0.451" y2="0.356" gradientUnits="objectBoundingBox"><stop offset="0" stop-color="#fcb66b"/><stop offset="0.1" stop-color="#fcb06a"/><stop offset="0.2" stop-color="#fca969"/><stop offset="0.3" stop-color="#fca368"/><stop offset="0.4" stop-color="#fc9d67"/><stop offset="0.5" stop-color="#fc9766"/><stop offset="0.6" stop-color="#fb9064"/><stop offset="0.7" stop-color="#fb8a63"/><stop offset="0.8" stop-color="#fb8462"/><stop offset="0.9" stop-color="#fb7d61"/><stop offset="1" stop-color="#fb7760"/></linearGradient><clipPath id="ad"><path class="d" d="M68.933-152.739a.849.849,0,0,1,1.234,0l2.654,2.762a.935.935,0,0,1,0,1.285l-.772.8-3.888-4.047Zm-5.094,5.3,3.888,4.047-.769.8a.849.849,0,0,1-1.234,0l-2.654-2.762a.935.935,0,0,1,0-1.285Zm7.438.35-.617.644,5.834,6.071a1.169,1.169,0,0,1,0,1.606,1.061,1.061,0,0,1-1.543,0l-5.834-6.071-.619.643-3.887-4.046,2.779-2.893Z" transform="translate(0)"/></clipPath><clipPath id="ae"><path class="c" d="M-91,218.222H250.39V-521H-91Z" transform="translate(91 521)"/></clipPath><clipPath id="af"><path class="c" d="M146.122-127.8a19,19,0,0,0,19-19,19,19,0,0,0-19-19,19,19,0,0,0-19,19A19,19,0,0,0,146.122-127.8Z" transform="translate(0)"/></clipPath><clipPath id="ag"><path class="c" d="M-91,264.714H286.665V-521H-91Z" transform="translate(91 521)"/></clipPath><linearGradient id="ah" x1="0.78" y1="0.174" x2="0.78" y2="0.373" gradientUnits="objectBoundingBox"><stop offset="0" stop-color="#c583f5"/><stop offset="0.1" stop-color="#be82f3"/><stop offset="0.2" stop-color="#b880f0"/><stop offset="0.3" stop-color="#b17fee"/><stop offset="0.4" stop-color="#ab7eec"/><stop offset="0.5" stop-color="#a57dea"/><stop offset="0.6" stop-color="#9e7be7"/><stop offset="0.7" stop-color="#977ae5"/><stop offset="0.8" stop-color="#9179e3"/><stop offset="0.9" stop-color="#8a77e0"/><stop offset="1" stop-color="#8476de"/></linearGradient><clipPath id="ai"><path class="d" d="M146.28-154.486a8,8,0,0,1,8,8,8,8,0,0,1-8,8,8,8,0,0,1-8-8A8,8,0,0,1,146.28-154.486Zm0,4.324a.649.649,0,0,0-.646.586l0,.062v2.378h-2.378a.649.649,0,0,0-.646.586l0,.062a.649.649,0,0,0,.586.646l.063,0h2.378v2.378a.649.649,0,0,0,.586.646l.062,0a.649.649,0,0,0,.646-.586l0-.063v-2.378h2.378a.649.649,0,0,0,.646-.586l0-.063a.649.649,0,0,0-.586-.646l-.062,0h-2.378v-2.378a.649.649,0,0,0-.586-.646Z" transform="translate(0)"/></clipPath><clipPath id="aj"><path class="c" d="M-91,247.107H278.2V-521H-91Z" transform="translate(91 521)"/></clipPath></defs><g transform="translate(-3144.385 -714.5)"><g class="e" transform="translate(3150 912)"><g class="f"><path class="b" d="M-1.622-189.462H192V-2.494H-1.622Z"/></g></g><g class="g" transform="translate(3150 899.84)"><g class="h"><path class="i" d="M58.994-125.383h70.613V-52.3H58.994Z"/></g></g><g class="j" transform="translate(3150 899.84)"><g class="h"><path class="b" d="M87.866-82.782h12.582v12.723H87.866Z"/></g></g><g class="k" transform="translate(3150 899.84)"><g class="l"><g class="m"><g class="n"><g class="o"><path class="b" d="M79.5-91.741H108.82v21.3H79.5Z"/></g></g></g></g></g><g class="p" transform="translate(3150 899.84)"><g class="h"><path class="b" d="M79.5-99.482h29.317v21.3H79.5Z"/></g></g><g class="q" transform="translate(3150 899.84)"><g class="l"><g class="r"><g class="s"><g class="t"><path class="b" d="M79.5-107.21h29.317v21.3H79.5Z"/></g></g></g></g></g><g class="u" transform="translate(3139.215 911.571)"><g class="v" transform="translate(-88.327 -494.539)"><g transform="translate(90.091 302.016)"><path class="w" d="M-36.785-126.429h182.14V58.921H-36.785Z" transform="translate(36.785 126.429)"/></g></g></g><g class="x" transform="translate(3141.224 912.532)"><g class="y" transform="translate(-57.795 -411.062)"><path class="b" d="M42.776-66.532H66.383v21.989H42.776Z" transform="translate(58.991 412.259)"/></g></g><g class="z" transform="translate(3150.994 903.614)"><g class="aa" transform="translate(-89.769 -502.438)"><g transform="translate(91.506 306.758)"><path class="ab" d="M-137.006-97.386h185V90.874h-185Z" transform="translate(137.006 97.386)"/></g></g></g><g class="ac" transform="translate(3151.198 902.629)"><g class="ad" transform="translate(-90.634 -519.573)"><path class="b" d="M140.8-94.629h30.985v21.967H140.8Z" transform="translate(90.642 519.589)"/></g></g><g class="ae" transform="translate(3120.854 916.881)"><g class="af" transform="translate(-97.221 -521.347)"><g transform="translate(95.89 321.308)"><path class="ag" d="M-55.146-40.119H138.718V157.071H-55.146Z" transform="translate(55.146 40.119)"/></g></g></g><g class="ah" transform="translate(3122.04 916.881)"><g class="ai" transform="translate(-77.214 -488.017)"><path class="b" d="M57.814-158.005h23.1v23.675h-23.1Z" transform="translate(77.662 488.466)"/></g></g><g class="aj" transform="translate(3145.878 904.8)"><g class="ak" transform="translate(-92.55 -509.501)"><g transform="translate(92.654 310.608)"><path class="al" d="M-126.121-34.2H61.2V156.423H-126.121Z" transform="translate(126.121 34.2)"/></g></g></g><g class="am" transform="translate(3145.72 904.486)"><g class="an" transform="translate(-87.456 -501.188)"><path class="b" d="M133.28-159.486h25.845v25.459H133.28Z" transform="translate(87.533 501.458)"/></g></g><g transform="translate(3320.819 717)"><path class="ao" d="M4.09,8.5a4.173,4.173,0,0,0,4.09-4.25A4.173,4.173,0,0,0,4.09,0,4.173,4.173,0,0,0,0,4.25,4.173,4.173,0,0,0,4.09,8.5Z"/></g><g transform="translate(3297 853.714)"><path class="ap" d="M3.5,7.286A3.574,3.574,0,0,0,7,3.643,3.574,3.574,0,0,0,3.5,0,3.574,3.574,0,0,0,0,3.643,3.574,3.574,0,0,0,3.5,7.286Z"/></g><g transform="translate(3162 899.714)"><path class="aq" d="M3.5,7.286A3.574,3.574,0,0,0,7,3.643,3.574,3.574,0,0,0,3.5,0,3.574,3.574,0,0,0,0,3.643,3.574,3.574,0,0,0,3.5,7.286Z"/></g><g transform="translate(3146.385 830.115)"><path class="ar" d="M3.308,6.885A3.377,3.377,0,0,0,6.616,3.443,3.377,3.377,0,0,0,3.308,0,3.377,3.377,0,0,0,0,3.443,3.377,3.377,0,0,0,3.308,6.885Z"/></g><g transform="translate(3217.076 737.533)"><path class="as" d="M5.934.184l4.9,5.106a.646.646,0,0,1,0,.888l-4.9,5.106a.587.587,0,0,1-.853,0L.177,6.177a.646.646,0,0,1,0-.888L5.081.184a.587.587,0,0,1,.853,0Z"/></g><g transform="translate(3258.345 833.757)"><path class="as" d="M7.895.245,14.42,7.038a.859.859,0,0,1,0,1.181L7.895,15.013a.78.78,0,0,1-1.135,0L.235,8.218a.859.859,0,0,1,0-1.181L6.76.245a.78.78,0,0,1,1.135,0Z"/></g><g transform="translate(3313 890.871)"><path class="at" d="M5.241.163l4.33,4.51a.571.571,0,0,1,0,.784L5.241,9.966a.518.518,0,0,1-.753,0L.156,5.457a.572.572,0,0,1,0-.784L4.488.163a.518.518,0,0,1,.753,0Z"/></g></g></svg>