<svg xmlns="http://www.w3.org/2000/svg" width="12" height="12" viewBox="0 0 12 12"><defs><style>.a{fill:#b7bfc7;}</style></defs><path class="a" d="M11.065,12a.93.93,0,0,1-.662-.274l-5-5-.531.529L1.539,3.924,3.923,1.541,7.254,4.874l-.529.53,5,5a.935.935,0,0,1-.662,1.6ZM3.023,8.8a.743.743,0,0,1-.529-.219L.219,6.3a.749.749,0,0,1,0-1.058l.66-.66L4.211,7.918l-.66.66A.741.741,0,0,1,3.023,8.8ZM7.917,4.213h0L4.583.88,5.245.219A.749.749,0,0,1,6.3.219L8.579,2.494a.751.751,0,0,1,0,1.058l-.661.66Z" transform="translate(0)"/></svg>