<svg xmlns="http://www.w3.org/2000/svg" width="18.067" height="17.8" viewBox="0 0 18.067 17.8"><defs><style>.a{fill:#fff;}</style></defs><g transform="translate(0 0)"><path class="a" d="M14.2,15.433a1.645,1.645,0,0,1-1.126-.53,10.069,10.069,0,0,0-.9-.878.788.788,0,0,1-.094-.089c-.645-.7-1.352-1.345-2.025-2.021-.408-.41-.8-.837-1.245-1.208-.146-.122-.261-.278-.394-.414C7.873,9.737,7.3,9.216,6.763,8.654c-.249-.262-.525-.5-.78-.761-.09-.092-.146-.07-.226.009-.214.211-.44.412-.653.625-.092.093-.151.09-.24,0C4.458,8.1,4.023,7.7,3.6,7.28,2.8,6.478,2,5.666,1.169,4.883.793,4.526.461,4.129.075,3.784c-.114-.1-.086-.169.007-.27.526-.57,1.1-1.091,1.651-1.64q.709-.712,1.425-1.42a3.2,3.2,0,0,0,.411-.4c.078-.111.143-.041.208.025.5.5,1,1,1.507,1.495q1.2,1.177,2.391,2.36c.3.3.608.611.918.91.1.09.091.151,0,.239-.175.164-.338.342-.511.509-.075.071-.1.126-.011.211.666.657,1.314,1.333,2,1.967.155.141.288.3.433.454.522.538,1.07,1.054,1.6,1.583.747.741,1.491,1.487,2.25,2.216.267.257.517.527.785.78a1.948,1.948,0,0,1,.487.688,1.191,1.191,0,0,1-.046,1.033,1.649,1.649,0,0,1-.692.743,1.734,1.734,0,0,1-.7.164" transform="translate(2.341 2.367)"/><path class="a" d="M1.993,0a.948.948,0,0,1,.757.31c.444.461.914.9,1.366,1.346Q5.17,2.707,6.229,3.749a1.055,1.055,0,0,1,.035,1.574c-.361.415-.791.757-1.167,1.155-.081.087-.137.067-.212-.008-.325-.328-.653-.652-.98-.976-.548-.54-1.09-1.087-1.64-1.623C1.55,3.176.853,2.466.138,1.772c-.184-.179-.183-.183-.007-.357C.5,1.046.84.647,1.241.305A1.02,1.02,0,0,1,1.993,0" transform="translate(6.817 0)"/><path class="a" d="M0,1.854a1.228,1.228,0,0,1,.355-.772C.692.73,1.045.395,1.385.05c.094-.094.147-.038.212.027.418.417.838.833,1.256,1.25C3.375,1.849,3.9,2.37,4.428,2.885c.657.638,1.292,1.3,1.96,1.928.118.112.122.181,0,.294-.346.324-.676.664-1.018.992a1.036,1.036,0,0,1-1.481-.008c-.321-.323-.664-.622-.976-.955C2.4,4.577,1.822,4.073,1.294,3.522,1.009,3.225.7,2.95.41,2.657a1.352,1.352,0,0,1-.41-.8" transform="translate(0 6.839)"/></g></svg>