<svg xmlns="http://www.w3.org/2000/svg" width="11.975" height="12" viewBox="0 0 11.975 12"><defs><style>.a{fill:#b7bfc7;}</style></defs><path class="a" d="M11.043,12a.927.927,0,0,1-.66-.274l-4.991-5-.53.529L1.536,3.924,3.915,1.541,7.239,4.874l-.528.53,4.991,5a.939.939,0,0,1,0,1.323A.927.927,0,0,1,11.043,12ZM3.017,8.8a.741.741,0,0,1-.528-.219L.218,6.3a.751.751,0,0,1,0-1.058l.658-.66L4.2,7.918l-.658.66A.739.739,0,0,1,3.017,8.8ZM7.9,4.213h0L4.574.88l.66-.662a.746.746,0,0,1,1.055,0L8.561,2.494a.752.752,0,0,1,0,1.058l-.66.66Z" transform="translate(0)"/></svg>