<svg xmlns="http://www.w3.org/2000/svg" width="11" height="13" viewBox="0 0 11 13"><defs><style>.a{fill:#b7bfc7;}</style></defs><path class="a" d="M0,7.588A5.349,5.349,0,0,1,1.36,4.029a5.523,5.523,0,0,1,3.356-1.8V1.553H4.257a.537.537,0,0,1-.541-.532V.533A.537.537,0,0,1,4.257,0H6.743a.537.537,0,0,1,.541.533v.488a.537.537,0,0,1-.541.532H6.284V2.23A5.5,5.5,0,0,1,9.316,3.694l.365-.359c-.169-.24-.217-.457-.122-.552A.192.192,0,0,1,9.7,2.735a1.115,1.115,0,0,1,.656.361,1.084,1.084,0,0,1,.366.645.182.182,0,0,1-.049.136.19.19,0,0,1-.138.048.806.806,0,0,1-.411-.16l-.383.378A5.367,5.367,0,0,1,11,7.588,5.462,5.462,0,0,1,5.5,13,5.462,5.462,0,0,1,0,7.588Zm1.327,0A4.145,4.145,0,0,0,5.5,11.695,4.145,4.145,0,0,0,9.673,7.588,4.145,4.145,0,0,0,5.5,3.481,4.145,4.145,0,0,0,1.327,7.588Zm3.918.686a.7.7,0,0,1,.129-1.1.917.917,0,0,1,.238-.109L5.585,4.076l.692.029L6.3,7.094a.993.993,0,0,1,.379.25.7.7,0,0,1-.129,1.1.986.986,0,0,1-.536.152A1.059,1.059,0,0,1,5.244,8.274Z"/></svg>