<svg xmlns="http://www.w3.org/2000/svg" width="11" height="13" viewBox="0 0 11 13"><defs><style>.a{fill:#b7bfc7;}</style></defs><path class="a" d="M0,6.588A5.349,5.349,0,0,1,1.36,3.029a5.523,5.523,0,0,1,3.356-1.8V.553H4.257A.537.537,0,0,1,3.716.021V-.467A.537.537,0,0,1,4.257-1H6.743a.537.537,0,0,1,.541.533V.021a.537.537,0,0,1-.541.532H6.284V1.23A5.5,5.5,0,0,1,9.316,2.694l.365-.359c-.169-.24-.217-.457-.122-.552A.192.192,0,0,1,9.7,1.735a1.115,1.115,0,0,1,.656.361,1.084,1.084,0,0,1,.366.645.182.182,0,0,1-.049.136.19.19,0,0,1-.138.048.806.806,0,0,1-.411-.16l-.383.378A5.367,5.367,0,0,1,11,6.588,5.462,5.462,0,0,1,5.5,12,5.462,5.462,0,0,1,0,6.588Zm1.327,0A4.145,4.145,0,0,0,5.5,10.695,4.145,4.145,0,0,0,9.673,6.588,4.145,4.145,0,0,0,5.5,2.481,4.145,4.145,0,0,0,1.327,6.588Zm3.918.686a.7.7,0,0,1,.129-1.1.917.917,0,0,1,.238-.109L5.585,3.076l.692.029L6.3,6.094a.993.993,0,0,1,.379.25.7.7,0,0,1-.129,1.1.986.986,0,0,1-.536.152A1.059,1.059,0,0,1,5.244,7.274Z" transform="translate(0 1)"/></svg>