<svg xmlns="http://www.w3.org/2000/svg" width="3.04" height="11.405" viewBox="0 0 3.04 11.405"><defs><style>.a{fill:#b7bfc7;}</style></defs><path class="a" d="M2.595.456a1.581,1.581,0,0,1,0,2.2,1.5,1.5,0,0,1-2.149,0,1.581,1.581,0,0,1,0-2.2,1.5,1.5,0,0,1,2.149,0"/><path class="a" d="M2.595,2.655a1.5,1.5,0,0,1-2.149,0,1.581,1.581,0,0,1,0-2.2,1.5,1.5,0,0,1,2.149,0A1.581,1.581,0,0,1,2.595,2.655Z" transform="translate(0 4.147)"/><path class="a" d="M2.595.456a1.581,1.581,0,0,1,0,2.2,1.5,1.5,0,0,1-2.149,0,1.581,1.581,0,0,1,0-2.2,1.5,1.5,0,0,1,2.149,0" transform="translate(0 8.294)"/></svg>