<svg xmlns="http://www.w3.org/2000/svg" xmlns:xlink="http://www.w3.org/1999/xlink" width="22" height="20.571" viewBox="0 0 22 20.571"><defs><style>.a{fill:none;stroke-linecap:round;stroke-linejoin:round;stroke-miterlimit:10;}.b,.c{stroke:none;}.c{fill:#424a64;}.d{filter:url(#a);}</style><filter id="a" x="0" y="0" width="22" height="20.571" filterUnits="userSpaceOnUse"><feOffset dy="1" input="SourceAlpha"/><feGaussianBlur stdDeviation="2" result="b"/><feFlood flood-opacity="0.153"/><feComposite operator="in" in2="b"/><feComposite in="SourceGraphic"/></filter></defs><g class="d" transform="matrix(1, 0, 0, 1, 0, 0)"><g class="a" transform="translate(6 5)"><path class="b" d="M2.687,0A2.77,2.77,0,0,0,0,3C0,5.484,5.015,8.571,5.015,8.571S10,5.514,10,3A2.767,2.767,0,0,0,7.343,0,2.594,2.594,0,0,0,5.015,1.533,2.752,2.752,0,0,0,2.687,0Z"/><path class="c" d="M 2.68671989440918 1.000004768371582 C 2.174590110778809 1.000004768371582 1.762700080871582 1.18943452835083 1.462499618530273 1.563034534454346 C 1.168569564819336 1.928804397583008 1 2.451384544372559 1 2.996774673461914 C 1 3.981954574584961 2.498519897460938 5.38625431060791 3.142789840698242 5.944294929504395 C 3.842893123626709 6.550688743591309 4.552496910095215 7.060500144958496 5.015840530395508 7.376080989837646 C 5.470709800720215 7.066752910614014 6.163087368011475 6.569395065307617 6.852950096130371 5.972124576568604 C 8.790789604187012 4.294374465942383 9 3.332464694976807 9 2.996774673461914 C 9 2.035074710845947 8.481559753417969 1.000004768371582 7.343279838562012 1.000004768371582 C 6.390900611877441 1.000004768371582 5.993744373321533 1.794824600219727 5.938648700714111 1.916290283203125 C 5.793844699859619 2.29296875 5.445592880249023 2.543094158172607 5.0417799949646 2.554114818572998 C 4.637754440307617 2.565126895904541 4.276044845581055 2.329094409942627 4.111021041870117 1.960482120513916 C 4.069332122802734 1.87838077545166 3.60153865814209 1.000004768371582 2.68671989440918 1.000004768371582 M 2.68671989440918 4.76837158203125e-06 C 4.298520088195801 4.76837158203125e-06 5.014999866485596 1.532684803009033 5.014999866485596 1.532684803009033 C 5.014999866485596 1.532684803009033 5.641880035400391 4.76837158203125e-06 7.343279838562012 4.76837158203125e-06 C 9.044690132141113 4.76837158203125e-06 10 1.468584537506104 10 2.996774673461914 C 10 5.514224529266357 5.014999866485596 8.57142448425293 5.014999866485596 8.57142448425293 C 5.014999866485596 8.57142448425293 0 5.484424591064453 0 2.996774673461914 C 0 1.498794555664062 0.9257097244262695 4.76837158203125e-06 2.68671989440918 4.76837158203125e-06 Z"/></g></g></svg>