<svg xmlns="http://www.w3.org/2000/svg" width="10.02" height="8.571" viewBox="0 0 10.02 8.571">
  <g id="fav-border-white" transform="translate(0.01)">
    <path id="Path_13" data-name="Path 13" d="M2.687,0A2.77,2.77,0,0,0,0,3C0,5.484,5.015,8.571,5.015,8.571S10,5.514,10,3A2.767,2.767,0,0,0,7.343,0,2.594,2.594,0,0,0,5.015,1.533,2.752,2.752,0,0,0,2.687,0Z" fill="none"/>
    <path id="Path_14" data-name="Path 14" d="M2.687,1a1.494,1.494,0,0,0-1.224.563A2.318,2.318,0,0,0,1,3c0,.985,1.5,2.389,2.143,2.948A20.963,20.963,0,0,0,5.016,7.376a20.429,20.429,0,0,0,1.837-1.4C8.791,4.294,9,3.332,9,3A1.785,1.785,0,0,0,7.343,1a1.567,1.567,0,0,0-1.4.916.986.986,0,0,1-1.828.044A1.737,1.737,0,0,0,2.687,1m0-1A2.752,2.752,0,0,1,5.015,1.533,2.594,2.594,0,0,1,7.343,0,2.767,2.767,0,0,1,10,3c0,2.517-4.985,5.575-4.985,5.575S0,5.484,0,3A2.769,2.769,0,0,1,2.687,0Z" fill="#fff"/>
  </g>
</svg>
