<svg xmlns="http://www.w3.org/2000/svg" width="16" height="16" viewBox="0 0 16 16"><defs><style>.a{fill:#828e99;}</style></defs><path class="a" d="M1.714,16A1.785,1.785,0,0,1,.5,15.562,1.366,1.366,0,0,1,0,14.5V3.5A1.365,1.365,0,0,1,.5,2.438,1.786,1.786,0,0,1,1.714,2H3.429V.375c0-.249.144-.375.428-.375H5.286c.284,0,.428.126.428.375V2h4.571V.375c0-.249.144-.375.428-.375h1.429c.284,0,.428.126.428.375V2h1.714a1.788,1.788,0,0,1,1.215.438A1.37,1.37,0,0,1,16,3.5v11a1.371,1.371,0,0,1-.5,1.063A1.79,1.79,0,0,1,14.286,16ZM1.6,14.4c0,.123.073.185.218.185H14.182c.144,0,.218-.062.218-.185V5.176H1.6Zm8.933-2.066q-.4,0-.4-.353V10.807q0-.352.4-.353h1.333q.4,0,.4.353v1.177q0,.352-.4.353Zm-3.2,0q-.4,0-.4-.353V10.807q0-.352.4-.353H8.666q.4,0,.4.353v1.177q0,.352-.4.353Zm-3.2,0q-.4,0-.4-.353V10.807q0-.352.4-.353H5.467q.4,0,.4.353v1.177q0,.352-.4.353Zm6.4-2.824q-.4,0-.4-.353V7.983q0-.353.4-.353h1.333q.4,0,.4.353V9.16q0,.352-.4.353Zm-3.2,0q-.4,0-.4-.353V7.983q0-.353.4-.353H8.666q.4,0,.4.353V9.16q0,.352-.4.353Zm-3.2,0q-.4,0-.4-.353V7.983q0-.353.4-.353H5.467q.4,0,.4.353V9.16q0,.352-.4.353Z"/></svg>