<svg xmlns="http://www.w3.org/2000/svg" width="16.147" height="19.803" viewBox="0 0 16.147 19.803"><defs><style>.a{fill:#828e99;}</style></defs><path class="a" d="M0,11.558A8.337,8.337,0,0,1,2,6.137,8.031,8.031,0,0,1,6.923,3.4V2.365H6.249a.8.8,0,0,1-.794-.811V.811A.8.8,0,0,1,6.249,0H9.9a.8.8,0,0,1,.794.811v.743a.8.8,0,0,1-.794.811H9.224V3.4a7.948,7.948,0,0,1,4.451,2.23l.536-.547c-.249-.367-.319-.7-.179-.84a.272.272,0,0,1,.2-.073,1.618,1.618,0,0,1,.963.55,1.673,1.673,0,0,1,.539.984.283.283,0,0,1-.072.207.27.27,0,0,1-.2.073,1.157,1.157,0,0,1-.6-.244l-.563.575a8.358,8.358,0,0,1,1.852,5.248A8.17,8.17,0,0,1,8.073,19.8,8.17,8.17,0,0,1,0,11.558Zm1.947,0a6.2,6.2,0,0,0,6.126,6.256,6.257,6.257,0,0,0,0-12.512A6.2,6.2,0,0,0,1.947,11.558Zm5.27.7a1.064,1.064,0,0,1,.167-1.47.992.992,0,0,1,.263-.152l.042-3.982.759.019-.042,3.982a1.031,1.031,0,0,1,.41.323,1.065,1.065,0,0,1-.167,1.471.986.986,0,0,1-.619.218A1.022,1.022,0,0,1,7.218,12.257Z"/></svg>