<svg xmlns="http://www.w3.org/2000/svg" width="16" height="16" viewBox="0 0 16 16"><defs><style>.a{fill:#828e99;}</style></defs><g transform="translate(0)"><path class="a" d="M14.754,16a1.24,1.24,0,0,1-.882-.365L7.2,8.969,6.5,9.675,2.054,5.232,5.23,2.056,9.673,6.5l-.705.707,6.668,6.666A1.247,1.247,0,0,1,14.754,16ZM4.031,11.73a.991.991,0,0,1-.705-.292L.293,8.4a1,1,0,0,1,0-1.411l.879-.88,4.444,4.443-.879.88A.991.991,0,0,1,4.031,11.73Zm6.525-6.112h0L6.112,1.174,6.994.293A1,1,0,0,1,8.4.293l3.033,3.033a1,1,0,0,1,0,1.411l-.882.881Z" transform="translate(0 0)"/></g></svg>