<svg xmlns="http://www.w3.org/2000/svg" width="15" height="15.001" viewBox="0 0 15 15.001"><defs><style>.a{fill:#fff;}</style></defs><path class="a" d="M6.477,14.728a1.994,1.994,0,0,1-.75-.75A.7.7,0,1,1,6.955,13.3c.068.068.137.2.273.273a.691.691,0,0,0,.955-.273.755.755,0,0,1,.955-.273c.34.136.34.613.136.955A2.054,2.054,0,0,1,7.5,15,1.927,1.927,0,0,1,6.477,14.728Zm-5.8-3.136a.682.682,0,0,1,0-1.365A1.365,1.365,0,0,0,2.045,8.864V5.455a5.455,5.455,0,1,1,10.909,0V8.864a1.365,1.365,0,0,0,1.364,1.364.682.682,0,0,1,0,1.365ZM3.409,5.455V8.864a3.091,3.091,0,0,1-.34,1.365h8.864a3.131,3.131,0,0,1-.341-1.365V5.455a4.091,4.091,0,0,0-8.182,0Z"/></svg>