<svg xmlns="http://www.w3.org/2000/svg" width="14" height="14" viewBox="0 0 14 14"><defs><style>.a{fill:#404040;}</style></defs><path class="a" d="M6.045,13.746a1.861,1.861,0,0,1-.7-.7.655.655,0,1,1,1.146-.636c.064.064.128.191.255.255a.645.645,0,0,0,.891-.255.7.7,0,0,1,.891-.255c.318.127.318.572.127.891A1.917,1.917,0,0,1,7,14,1.8,1.8,0,0,1,6.045,13.746ZM.636,10.819a.637.637,0,0,1,0-1.273A1.274,1.274,0,0,0,1.909,8.273V5.091a5.091,5.091,0,1,1,10.182,0V8.273a1.274,1.274,0,0,0,1.273,1.273.637.637,0,0,1,0,1.273ZM3.182,5.091V8.273a2.9,2.9,0,0,1-.318,1.273h8.273a2.9,2.9,0,0,1-.319-1.273V5.091a3.818,3.818,0,1,0-7.636,0Z"/></svg>