<svg xmlns="http://www.w3.org/2000/svg" width="18" height="10.517" viewBox="0 0 18 10.517"><defs><style>.a{fill:#828e99;}</style></defs><path class="a" d="M7.727,8.749a1.794,1.794,0,0,1,.347-1.063c.567-.837,1.176-1.637,1.8-2.429,1.027-1.319,2.065-2.626,3.212-3.841a4.971,4.971,0,0,1,.793-.73c.07-.049.147-.126.223-.082s.066.159.059.252A10.17,10.17,0,0,1,13.6,2.99c-.727,2.159-1.546,4.282-2.477,6.355a1.824,1.824,0,0,1-1.2,1.108,1.791,1.791,0,0,1-.472.064A1.733,1.733,0,0,1,7.727,8.749Zm8.387.968c-.008-.2,0-.394,0-.68A5.634,5.634,0,0,0,15,5.578a.775.775,0,0,1,.569-1.228.986.986,0,0,1,.99.357,7.525,7.525,0,0,1,1.2,2.625A8.594,8.594,0,0,1,17.991,9.7a.86.86,0,0,1-.691.791,1.219,1.219,0,0,1-.251.027A.873.873,0,0,1,16.115,9.717ZM0,9.65c0-.191,0-.382,0-.569A8.808,8.808,0,0,1,1.7,3.682,8.91,8.91,0,0,1,7.247.218,10.154,10.154,0,0,1,9.384,0a.909.909,0,0,1,.9.72.869.869,0,0,1-.6.977,1.768,1.768,0,0,1-.558.058H8.984A7.257,7.257,0,0,0,4.939,3.006,6.862,6.862,0,0,0,1.932,7.534a11.353,11.353,0,0,0-.114,2.061.893.893,0,0,1-.688.893,1.028,1.028,0,0,1-.223.025A.887.887,0,0,1,0,9.65Z"/></svg>