<svg width="17" height="17" xmlns="http://www.w3.org/2000/svg">
    <defs>
        <linearGradient x1="100%" y1="50%" x2="0%" y2="50%" id="a">
            <stop stop-color="#08BAC1" offset="0%"/>
            <stop stop-color="#60D272" offset="100%"/>
        </linearGradient>
    </defs>
    <path d="m10.106 0-.325.325a2.299 2.299 0 0 0-.338 2.814L6.16 5.358 6.103 5.3a3.217 3.217 0 0 0-4.543 0l-.325.325 4.078 4.078L0 15.018l.65.649 5.313-5.314 4.078 4.079.325-.325a3.217 3.217 0 0 0 0-4.544l-.057-.056 2.218-3.284a2.299 2.299 0 0 0 2.815-.338l.325-.324L10.106 0zm-.097 13.1L2.566 5.659a2.299 2.299 0 0 1 2.888.292l4.263 4.263c.783.783.88 1.997.292 2.888zm-.361-4.255L6.82 6.02l3.228-2.181 1.78 1.78-2.181 3.227zm3.098-3.609L10.43 2.921a1.38 1.38 0 0 1-.27-1.567l4.152 4.151a1.38 1.38 0 0 1-1.567-.269z" transform="translate(.667 .667)" fill="url(#a)" fill-rule="nonzero"/>
</svg>
