<svg xmlns="http://www.w3.org/2000/svg" width="13.25" height="13.25" viewBox="0 0 13.25 13.25"><defs><style>.a{fill:#fff;}</style></defs><path class="a" d="M17.538,7.407l-1.7-1.7a2.408,2.408,0,0,0-3.407,0L10.247,7.882a.668.668,0,0,1-.476.2H9.128A1.884,1.884,0,0,0,7.8,11.29l1.662,1.662L9.386,13,5.172,17.214a.6.6,0,1,0,.855.855l4.214-4.214.048-.072,1.662,1.662a1.878,1.878,0,0,0,3.209-1.33v-.644a.668.668,0,0,1,.2-.476l2.179-2.179a2.408,2.408,0,0,0,0-3.407Zm-.855,2.553L14.5,12.139a1.872,1.872,0,0,0-.548,1.33v.644a.662.662,0,0,1-.2.476.692.692,0,0,1-.957,0L8.646,10.417a.677.677,0,0,1,.482-1.156h.644a1.872,1.872,0,0,0,1.33-.548l2.179-2.179a1.2,1.2,0,0,1,1.7,0l1.7,1.7a1.2,1.2,0,0,1,0,1.7Z" transform="translate(-4.994 -4.997)"/></svg>