<?xml version="1.0" encoding="UTF-8"?>
<svg width="16px" height="14px" viewBox="0 0 16 14" version="1.1" xmlns="http://www.w3.org/2000/svg" xmlns:xlink="http://www.w3.org/1999/xlink">
    <title>CB0418B7-8FF4-49AC-B645-C97027EAAD95</title>
    <g id="Vehicle-Flow" stroke="none" stroke-width="1" fill="none" fill-rule="evenodd">
        <g id="Vehicle-Detail" transform="translate(-702.000000, -2637.000000)" fill="#E51937">
            <g id="FAQ" transform="translate(117.000000, 2458.000000)">
                <g id="Plus" transform="translate(585.220339, 179.000000)">
                    <path d="M13.9033898,6 L8.5559322,6 L8.5559322,1 C8.5559322,0.447 8.07786949,0 7.48644068,0 C6.89501186,0 6.41694915,0.447 6.41694915,1 L6.41694915,6 L1.06949153,6 C0.478062712,6 0,6.447 0,7 C0,7.553 0.478062712,8 1.06949153,8 L6.41694915,8 L6.41694915,13 C6.41694915,13.553 6.89501186,14 7.48644068,14 C8.07786949,14 8.5559322,13.553 8.5559322,13 L8.5559322,8 L13.9033898,8 C14.4948186,8 14.9728814,7.553 14.9728814,7 C14.9728814,6.447 14.4948186,6 13.9033898,6" id="Fill-1"></path>
                </g>
            </g>
        </g>
    </g>
</svg>