<svg xmlns="http://www.w3.org/2000/svg" width="11.78" height="14.308" viewBox="0 0 11.78 14.308"><defs><style>.a{fill:#fff;}</style></defs><path class="a" d="M139.962,203.466a.5.5,0,0,0-.383.172l-2.234,2.162a.47.47,0,0,0-.159.344.461.461,0,0,0,.458.464h.026a.468.468,0,0,0,.357-.159l1.007-1.069.443-.466-.04.993v6.975a.532.532,0,0,0,.526.516.526.526,0,0,0,.523-.516v-6.975l-.04-.993.454.466,1,1.069a.5.5,0,0,0,.364.159.451.451,0,0,0,.478-.424c0-.013,0-.025,0-.039a.463.463,0,0,0-.152-.344l-2.239-2.164A.519.519,0,0,0,139.962,203.466Zm-3.793,14.288h7.59a1.828,1.828,0,0,0,2.078-2.051V209.9a1.828,1.828,0,0,0-1.568-2.055,1.854,1.854,0,0,0-.51,0h-1.846v1.066h1.827a.937.937,0,0,1,1.034.827.91.91,0,0,1,0,.218v5.689a.937.937,0,0,1-.813,1.045.916.916,0,0,1-.219,0h-7.558a.927.927,0,0,1-1.026-1.046v-5.689a.929.929,0,0,1,1.026-1.045h1.834v-1.065h-1.846a1.828,1.828,0,0,0-2.079,2.051V215.7a1.826,1.826,0,0,0,2.079,2.051Z" transform="translate(-134.073 -203.466)"/></svg>