<svg xmlns="http://www.w3.org/2000/svg" width="10" height="5.843" viewBox="0 0 10 5.843"><defs><style>.a{fill:#404040;}</style></defs><path class="a" d="M8.952,5.4c0-.111,0-.218,0-.378A3.128,3.128,0,0,0,8.331,3.1a.43.43,0,0,1,.316-.681.545.545,0,0,1,.549.2,4.17,4.17,0,0,1,.666,1.458A4.786,4.786,0,0,1,10,5.388a.477.477,0,0,1-.384.439.675.675,0,0,1-.14.015A.485.485,0,0,1,8.952,5.4ZM4.293,4.86a1.006,1.006,0,0,1,.193-.591c.315-.465.654-.909,1-1.349.57-.733,1.147-1.459,1.785-2.134a2.789,2.789,0,0,1,.44-.405c.039-.027.082-.07.124-.045s.037.088.033.139A5.636,5.636,0,0,1,7.555,1.66c-.4,1.2-.858,2.379-1.377,3.531a1.009,1.009,0,0,1-.668.615.992.992,0,0,1-.263.036A.963.963,0,0,1,4.293,4.86ZM0,5.361c0-.106,0-.213,0-.316a4.885,4.885,0,0,1,.94-3A4.949,4.949,0,0,1,4.026.121,5.6,5.6,0,0,1,5.213,0a.5.5,0,0,1,.5.4.483.483,0,0,1-.336.543,1.33,1.33,0,0,1-.384.033,4.034,4.034,0,0,0-2.248.693,3.813,3.813,0,0,0-1.67,2.516A6.294,6.294,0,0,0,1.01,5.331a.494.494,0,0,1-.382.5A.573.573,0,0,1,.5,5.84.492.492,0,0,1,0,5.361Z"/></svg>